<?xml version="1.0" standalone="no"?>
<!DOCTYPE svg PUBLIC "-//W3C//DTD SVG 20010904//EN"
 "http://www.w3.org/TR/2001/REC-SVG-20010904/DTD/svg10.dtd">
<svg version="1.0" xmlns="http://www.w3.org/2000/svg"
 width="1366.000000pt" height="768.000000pt" viewBox="0 0 1366.000000 768.000000"
 preserveAspectRatio="xMidYMid meet">

<g transform="translate(0.000000,768.000000) scale(0.100000,-0.100000)"
fill="#000000" stroke="none">
<path d="M2540 7675 c0 -2 66 -37 148 -79 81 -41 176 -90 210 -110 35 -20 66
-36 68 -36 12 0 360 -197 599 -339 367 -219 375 -223 375 -213 0 5 -11 14 -24
20 -14 6 -62 35 -108 65 -46 31 -184 115 -308 187 -124 73 -292 175 -373 227
-211 134 -243 151 -216 116 11 -16 11 -16 -1 -5 -8 7 -15 18 -15 25 0 7 -8 11
-18 11 -9 -1 -15 2 -12 6 6 10 -161 121 -190 127 -11 2 -14 1 -7 -3 6 -3 9
-11 6 -16 -5 -7 -2 -8 5 -4 8 5 14 0 18 -13 3 -12 12 -21 21 -21 8 0 13 -3 9
-6 -3 -4 -14 -3 -24 1 -10 5 -21 8 -25 7 -4 -1 -10 7 -13 18 -4 11 -12 17 -21
13 -7 -3 -14 -1 -14 5 0 6 6 13 13 15 6 3 2 6 -11 6 -13 1 -20 -3 -17 -9 3 -5
-1 -10 -10 -10 -9 0 -14 3 -12 8 3 4 -8 8 -24 9 -16 1 -29 0 -29 -2z m220 -65
c0 -5 -2 -10 -4 -10 -3 0 -8 5 -11 10 -3 6 -1 10 4 10 6 0 11 -4 11 -10z m30
-20 c0 -5 -4 -10 -10 -10 -5 0 -10 5 -10 10 0 6 5 10 10 10 6 0 10 -4 10 -10z"/>
<path d="M3919 7663 c-13 -16 -12 -17 4 -4 16 13 21 21 13 21 -2 0 -10 -8 -17
-17z"/>
<path d="M3984 7648 l-19 -23 23 19 c12 11 22 21 22 23 0 8 -8 2 -26 -19z"/>
<path d="M3939 7613 c-13 -16 -12 -17 4 -4 9 7 17 15 17 17 0 8 -8 3 -21 -13z"/>
<path d="M3999 7593 c-13 -16 -12 -17 4 -4 9 7 17 15 17 17 0 8 -8 3 -21 -13z"/>
<path d="M3959 7563 c-13 -16 -12 -17 4 -4 9 7 17 15 17 17 0 8 -8 3 -21 -13z"/>
<path d="M4019 7543 c-13 -16 -12 -17 4 -4 9 7 17 15 17 17 0 8 -8 3 -21 -13z"/>
<path d="M4849 7423 c-13 -16 -12 -17 4 -4 9 7 17 15 17 17 0 8 -8 3 -21 -13z"/>
<path d="M1410 7349 c0 -35 0 -36 -46 -36 -25 -1 -48 -4 -51 -7 -4 -3 42 -6
102 -6 107 0 143 8 51 12 -44 1 -47 3 -43 24 2 12 0 29 -4 36 -6 8 -9 0 -9
-23z"/>
<path d="M1044 7328 l-19 -23 23 19 c12 11 22 21 22 23 0 8 -8 2 -26 -19z"/>
<path d="M959 7313 c-13 -16 -12 -17 4 -4 16 13 21 21 13 21 -2 0 -10 -8 -17
-17z"/>
<path d="M1119 7293 l-34 -38 38 34 c34 33 42 41 34 41 -2 0 -19 -17 -38 -37z"/>
<path d="M1216 7282 l-19 -27 24 22 c12 12 21 24 18 27 -2 2 -13 -8 -23 -22z"/>
<path d="M1144 7258 l-29 -33 33 29 c30 28 37 36 29 36 -2 0 -16 -15 -33 -32z"/>
<path d="M1259 7273 c-13 -16 -12 -17 4 -4 16 13 21 21 13 21 -2 0 -10 -8 -17
-17z"/>
<path d="M1410 7246 c0 -29 -7 -53 -22 -72 l-21 -29 28 27 c23 21 29 36 29 72
1 25 -2 46 -6 46 -5 0 -8 -20 -8 -44z"/>
<path d="M1009 7243 c-13 -16 -12 -17 4 -4 16 13 21 21 13 21 -2 0 -10 -8 -17
-17z"/>
<path d="M1284 7238 l-19 -23 23 19 c21 18 27 26 19 26 -2 0 -12 -10 -23 -22z"/>
<path d="M1339 7243 c-13 -16 -12 -17 4 -4 9 7 17 15 17 17 0 8 -8 3 -21 -13z"/>
<path d="M1224 7228 l-19 -23 23 19 c21 18 27 26 19 26 -2 0 -12 -10 -23 -22z"/>
<path d="M1135 7188 l-50 -53 53 50 c48 46 57 55 49 55 -1 0 -25 -24 -52 -52z"/>
<path d="M1029 7203 c-13 -16 -12 -17 4 -4 16 13 21 21 13 21 -2 0 -10 -8 -17
-17z"/>
<path d="M1079 7193 l-24 -28 28 24 c25 23 32 31 24 31 -2 0 -14 -12 -28 -27z"/>
<path d="M1304 7198 l-19 -23 23 19 c21 18 27 26 19 26 -2 0 -12 -10 -23 -22z"/>
<path d="M1359 7203 c-13 -16 -12 -17 4 -4 9 7 17 15 17 17 0 8 -8 3 -21 -13z"/>
<path d="M1239 7183 l-24 -28 28 24 c25 23 32 31 24 31 -2 0 -14 -12 -28 -27z"/>
<path d="M1434 7168 l-19 -23 23 19 c12 11 22 21 22 23 0 8 -8 2 -26 -19z"/>
<path d="M1139 7133 l-34 -38 38 34 c34 33 42 41 34 41 -2 0 -19 -17 -38 -37z"/>
<path d="M1319 7153 c-13 -16 -12 -17 4 -4 9 7 17 15 17 17 0 8 -8 3 -21 -13z"/>
<path d="M1249 7133 l-24 -28 28 24 c25 23 32 31 24 31 -2 0 -14 -12 -28 -27z"/>
<path d="M1399 7123 c-13 -16 -12 -17 4 -4 16 13 21 21 13 21 -2 0 -10 -8 -17
-17z"/>
<path d="M1179 7113 c-13 -16 -12 -17 4 -4 16 13 21 21 13 21 -2 0 -10 -8 -17
-17z"/>
<path d="M1339 7113 c-13 -16 -12 -17 4 -4 9 7 17 15 17 17 0 8 -8 3 -21 -13z"/>
<path d="M1269 7093 l-24 -28 28 24 c25 23 32 31 24 31 -2 0 -14 -12 -28 -27z"/>
<path d="M150 7106 c0 -2 8 -10 18 -17 15 -13 16 -12 3 4 -13 16 -21 21 -21
13z"/>
<path d="M110 7087 c0 -3 12 -12 26 -22 15 -9 23 -12 20 -6 -7 11 -46 35 -46
28z"/>
<path d="M1354 7068 l-19 -23 23 19 c21 18 27 26 19 26 -2 0 -12 -10 -23 -22z"/>
<path d="M1279 7043 l-24 -28 28 24 c25 23 32 31 24 31 -2 0 -14 -12 -28 -27z"/>
<path d="M110 7046 c0 -2 8 -10 18 -17 15 -13 16 -12 3 4 -13 16 -21 21 -21
13z"/>
<path d="M2009 7033 c-13 -16 -12 -17 4 -4 9 7 17 15 17 17 0 8 -8 3 -21 -13z"/>
<path d="M2079 7033 c-13 -16 -12 -17 4 -4 9 7 17 15 17 17 0 8 -8 3 -21 -13z"/>
<path d="M60 7037 c0 -2 15 -14 33 -27 20 -15 27 -17 18 -6 -13 16 -51 41 -51
33z"/>
<path d="M30 7017 c0 -2 15 -14 33 -27 20 -15 27 -17 18 -6 -13 16 -51 41 -51
33z"/>
<path d="M1294 6998 l-19 -23 23 19 c12 11 22 21 22 23 0 8 -8 2 -26 -19z"/>
<path d="M1904 6988 l-19 -23 23 19 c21 18 27 26 19 26 -2 0 -12 -10 -23 -22z"/>
<path d="M1939 6963 c-13 -16 -12 -17 4 -4 9 7 17 15 17 17 0 8 -8 3 -21 -13z"/>
<path d="M1129 6953 c-13 -16 -12 -17 4 -4 16 13 21 21 13 21 -2 0 -10 -8 -17
-17z"/>
<path d="M1164 6928 l-19 -23 23 19 c21 18 27 26 19 26 -2 0 -12 -10 -23 -22z"/>
<path d="M1199 6903 l-34 -38 38 34 c20 19 37 36 37 38 0 8 -8 0 -41 -34z"/>
<path d="M9355 6624 c-38 -42 -79 -86 -90 -98 -11 -11 -33 -37 -49 -56 -15
-19 -54 -62 -85 -95 -31 -33 -85 -94 -121 -135 -36 -41 -76 -86 -90 -100 -14
-14 -38 -41 -54 -60 -15 -19 -54 -62 -85 -95 -31 -33 -85 -94 -121 -135 -36
-41 -72 -82 -80 -90 -8 -8 -35 -38 -60 -65 -25 -28 -85 -95 -135 -149 -49 -54
-97 -108 -105 -119 -7 -12 -32 -39 -53 -62 -22 -22 -65 -69 -96 -105 -31 -35
-86 -96 -123 -135 -37 -38 -68 -75 -68 -80 0 -6 -9 -16 -20 -23 -11 -7 -20
-17 -20 -22 0 -6 119 -10 330 -10 314 0 330 -1 330 -18 0 -11 -8 -26 -18 -35
-17 -15 -56 -17 -349 -17 -263 0 -333 -3 -342 -13 -7 -9 -12 -111 -13 -307
l-3 -294 -94 -27 c-102 -30 -122 -42 -103 -61 7 -7 12 -22 12 -34 0 -39 11
-54 40 -54 16 0 32 5 35 10 3 6 21 10 40 10 19 0 37 5 40 10 8 12 16 12 34 1
11 -7 15 -72 23 -302 14 -464 44 -811 97 -1129 5 -30 14 -84 20 -120 6 -36 15
-85 21 -110 5 -25 14 -67 20 -95 5 -27 14 -68 19 -90 6 -22 13 -53 17 -70 17
-77 63 -239 146 -510 12 -38 28 -78 37 -87 13 -14 49 -18 226 -25 l210 -8 3
-27 3 -28 187 -2 c177 -3 187 -4 187 -22 0 -15 12 -22 59 -33 65 -15 76 -12
76 22 0 12 7 26 16 29 9 3 678 6 1489 6 1261 0 1474 2 1484 14 7 8 11 36 9 63
l-3 48 -125 5 -125 5 1 45 c1 25 7 106 13 180 7 74 16 189 22 255 17 223 29
360 37 435 7 72 8 75 35 78 15 2 27 9 27 15 5 132 -3 404 -12 414 -6 8 -8 36
-4 75 4 35 11 119 17 188 5 69 14 170 19 225 5 55 14 158 19 229 6 70 12 131
15 133 12 12 31 -16 78 -113 28 -57 54 -101 58 -99 10 6 0 55 -11 55 -5 0 -9
7 -9 15 0 8 -9 30 -20 49 -73 131 -91 169 -88 188 6 45 25 24 87 -97 61 -121
81 -146 81 -106 0 11 5 23 10 26 6 3 10 17 10 30 0 13 5 27 10 30 6 3 10 15
10 26 0 10 4 27 9 37 5 9 17 34 26 56 10 23 21 34 26 29 5 -5 10 -78 12 -161
2 -127 -1 -154 -13 -162 -12 -7 -8 -10 14 -10 l28 0 -4 203 c-2 116 -8 210
-14 220 -10 17 -13 14 -32 -27 -12 -25 -22 -53 -22 -61 0 -8 -4 -15 -10 -15
-5 0 -10 -9 -10 -19 0 -11 -4 -23 -10 -26 -5 -3 -10 -16 -10 -29 0 -12 -4 -26
-9 -32 -5 -5 -11 -20 -13 -34 -3 -28 -48 -44 -48 -17 0 14 -92 190 -112 214
-10 12 -9 34 12 278 6 61 17 191 25 290 22 272 34 408 46 533 11 106 10 114
-7 127 -18 13 -18 14 1 20 11 4 28 11 37 16 10 5 27 9 39 9 34 0 59 19 59 45
0 13 -4 27 -10 30 -5 3 -10 18 -10 32 0 23 -3 25 -37 19 -88 -13 -113 -19
-119 -27 -3 -5 -18 -9 -33 -9 -15 0 -32 -5 -37 -10 -18 -18 -106 -16 -146 3
-21 9 -55 24 -75 33 -21 9 -66 29 -101 45 -35 16 -65 29 -69 29 -3 0 -39 16
-80 35 -41 19 -76 35 -79 35 -2 0 -29 12 -61 26 -32 14 -74 33 -93 41 -58 25
-123 54 -163 74 -22 11 -43 19 -48 19 -5 0 -28 9 -52 19 -176 81 -289 131
-292 131 -3 0 -30 12 -62 26 -32 14 -74 33 -93 41 -19 8 -52 23 -73 34 -22 10
-47 19 -58 19 -10 0 -19 5 -19 10 0 6 -7 10 -15 10 -8 0 -29 8 -47 18 -18 10
-49 24 -68 31 -19 7 -57 24 -85 36 -27 13 -104 46 -170 75 -66 29 -148 65
-182 81 -34 16 -66 29 -71 29 -5 0 -36 13 -68 29 -32 16 -67 32 -77 35 -29 9
-31 35 -7 68 19 26 21 34 11 50 -7 11 -9 28 -6 38 7 23 -11 36 -29 20 -8 -6
-26 -8 -40 -4 -20 5 -26 2 -26 -10 0 -9 -4 -16 -9 -16 -5 0 -16 -16 -25 -35
-10 -21 -24 -35 -35 -35 -11 0 -53 37 -97 85 l-79 85 -70 -76z m513 -355 c26
-11 55 -25 64 -30 10 -5 25 -9 33 -9 8 0 15 -4 15 -10 0 -5 7 -10 15 -10 8 0
30 -9 50 -20 20 -11 42 -20 49 -20 8 0 40 -13 71 -30 31 -16 61 -30 66 -30 5
0 42 -15 82 -34 40 -19 100 -46 134 -60 64 -27 129 -56 240 -107 34 -16 66
-29 72 -29 6 0 25 -8 43 -18 18 -10 49 -24 68 -31 19 -7 64 -27 100 -43 36
-17 74 -34 85 -38 11 -4 51 -22 88 -39 37 -17 70 -31 74 -31 3 0 39 -16 80
-35 41 -19 78 -35 82 -35 5 0 37 -14 72 -31 35 -18 73 -35 84 -39 11 -4 43
-18 70 -30 28 -12 59 -26 70 -30 66 -26 135 -61 135 -70 0 -5 -11 -10 -24 -10
-14 0 -27 -4 -30 -9 -3 -5 -20 -11 -38 -14 -44 -7 -331 -85 -538 -146 -36 -11
-84 -24 -107 -30 -96 -24 -129 -34 -148 -41 -11 -5 -36 -11 -56 -14 -35 -6
-40 -3 -105 65 -90 93 -87 90 -106 117 -9 13 -49 58 -90 101 -41 43 -81 88
-90 100 -9 12 -52 60 -97 107 -44 46 -81 87 -81 92 0 4 -31 39 -68 77 -37 39
-92 100 -123 135 -31 36 -74 83 -96 105 -21 23 -47 52 -56 65 -9 13 -46 54
-82 91 -57 57 -78 89 -60 89 3 0 27 -9 53 -21z m2186 -989 c-1 -25 -7 -108
-13 -185 -7 -77 -16 -192 -21 -255 -18 -220 -30 -366 -40 -485 -16 -188 -28
-339 -38 -478 -12 -164 -24 -182 -74 -112 -19 26 -43 63 -53 83 -11 21 -31 55
-45 77 -15 22 -39 66 -54 98 -24 51 -46 73 -46 48 0 -9 41 -92 50 -101 5 -5
12 -17 64 -110 80 -142 92 -159 111 -162 27 -4 29 -25 16 -153 -11 -108 -14
-146 -47 -530 -9 -104 -18 -192 -20 -194 -10 -11 -39 33 -94 145 -34 68 -65
126 -70 129 -17 10 -19 -12 -3 -41 9 -16 48 -93 89 -170 l72 -142 -9 -128 c-5
-71 -13 -181 -19 -244 -17 -189 -30 -348 -40 -475 -15 -201 -22 -217 -68 -176
-21 17 -22 27 -22 188 0 156 2 171 20 191 l21 22 -34 0 -35 0 -5 -192 c-3
-106 -8 -203 -12 -215 -5 -16 -15 -23 -32 -23 -21 0 -24 3 -19 23 4 12 9 109
13 215 l6 192 -37 0 -37 0 21 -22 c17 -19 20 -35 20 -117 -1 -53 -7 -127 -14
-165 -11 -56 -19 -73 -46 -96 l-33 -29 -387 -1 c-212 0 -389 3 -393 6 -12 12
15 34 42 34 14 0 31 4 37 8 10 7 14 16 34 87 4 17 22 77 38 135 49 174 49 180
-9 180 -30 0 -31 19 -9 115 42 178 89 493 120 800 6 61 13 130 16 155 17 137
34 622 49 1352 5 251 3 321 -7 337 -12 20 -21 21 -201 21 -143 0 -188 3 -185
12 7 21 166 57 257 57 72 1 82 3 71 16 -15 18 -5 35 20 35 11 0 29 4 42 9 27
10 90 28 218 61 25 7 53 16 62 21 10 5 25 9 35 9 9 0 30 4 47 9 17 5 51 15 76
21 25 7 53 16 62 21 10 5 25 9 35 9 16 0 66 14 108 31 11 4 31 10 45 12 28 5
139 36 240 66 36 10 76 18 90 18 23 -2 25 -6 24 -47z m-1831 -289 c17 -3 5
-19 -20 -29 -109 -42 -113 -42 -822 -42 -729 0 -711 -1 -658 48 l23 22 715 2
c665 3 741 3 762 -1z m-1736 -115 c-3 -8 -73 -116 -156 -240 l-151 -225 -67
-20 c-140 -41 -223 -62 -230 -58 -10 6 -17 532 -8 546 4 8 107 11 312 11 260
0 304 -2 300 -14z m1373 6 c0 -5 -24 -14 -52 -21 -29 -7 -66 -17 -83 -22 -31
-10 -192 -54 -570 -158 -256 -71 -291 -81 -325 -91 -14 -4 -95 -27 -180 -50
-85 -24 -173 -48 -195 -55 -22 -7 -43 -11 -47 -9 -4 3 7 26 26 52 18 26 81
118 140 205 l107 157 589 0 c325 0 590 -4 590 -8z m1119 -479 c-1 -430 -5
-591 -22 -803 -3 -30 -10 -131 -16 -225 -6 -93 -16 -198 -21 -233 -6 -35 -15
-105 -20 -155 -22 -222 -53 -393 -61 -337 -4 28 -15 30 -74 17 -46 -10 -301
-12 -391 -3 -34 3 -82 12 -107 20 -25 8 -48 11 -51 8 -4 -3 -6 27 -6 66 0 41
-4 72 -10 72 -5 0 -10 -6 -10 -12 -2 -61 -12 -274 -14 -275 -1 -2 -130 -4
-287 -6 -181 -1 -283 -6 -282 -12 2 -6 39 -11 83 -13 70 -2 81 -5 79 -20 -1
-9 -1 -30 0 -46 l1 -30 44 47 c35 38 50 47 77 47 l34 0 -79 -75 c-43 -41 -82
-72 -87 -69 -5 3 -9 0 -9 -6 0 -6 6 -13 13 -16 10 -3 13 -19 11 -52 -9 -117
-9 -170 -2 -166 4 3 8 -2 8 -11 0 -9 -5 -13 -10 -10 -6 4 -10 3 -9 -2 4 -22
-2 -43 -11 -38 -6 4 -10 -5 -10 -19 0 -14 -4 -26 -10 -26 -5 0 -10 -7 -10 -15
0 -8 -9 -30 -20 -50 -11 -20 -20 -42 -20 -50 0 -8 -4 -15 -8 -15 -5 0 -14 -16
-22 -35 -8 -19 -17 -35 -22 -35 -4 0 -8 -9 -8 -20 0 -11 -4 -20 -9 -20 -5 0
-11 -11 -13 -24 -8 -39 16 -21 43 32 13 26 27 49 32 50 4 2 7 10 7 17 0 24
126 249 203 365 61 91 208 240 237 240 6 0 10 5 10 10 0 6 6 10 14 10 8 0 16
4 18 8 4 11 120 65 183 87 117 39 333 57 465 37 53 -8 58 -22 40 -116 -6 -34
-16 -83 -21 -111 -22 -115 -33 -168 -71 -330 -39 -168 -85 -333 -98 -348 -11
-12 -1053 -9 -1060 4 -5 7 -70 10 -186 8 l-179 -1 3 26 c2 15 21 45 45 70 59
59 152 161 217 236 30 35 85 96 123 134 37 38 67 75 67 81 0 6 10 21 21 34 15
16 18 26 11 33 -11 11 -31 -7 -186 -175 -44 -49 -101 -110 -126 -136 -68 -72
-144 -161 -157 -185 -9 -17 -12 13 -17 149 -9 259 -37 517 -74 670 -6 22 -13
56 -17 75 -19 91 -87 318 -105 352 -6 10 -10 23 -10 29 0 6 -10 25 -22 42 -33
45 -48 77 -48 98 0 10 -4 21 -10 24 -5 3 -10 15 -10 26 0 10 -4 19 -10 19 -5
0 -10 9 -10 19 0 10 -13 45 -30 76 -16 31 -30 63 -30 71 0 8 -4 14 -10 14 -5
0 -10 6 -10 14 0 8 -6 27 -14 43 -8 15 -24 48 -35 73 -25 53 -66 124 -92 162
-11 14 -19 29 -19 33 0 13 -238 348 -259 365 -4 3 -24 26 -45 52 -37 46 -40
68 -9 68 14 0 58 12 188 49 51 14 105 29 220 61 61 17 126 35 145 40 42 12
379 105 585 161 83 23 161 45 175 49 25 8 45 13 180 50 135 37 155 42 180 50
14 4 79 22 145 40 66 18 154 43 195 55 69 21 95 23 338 24 l262 1 -1 -487z
m-2743 -235 c38 -46 71 -85 74 -88 31 -28 241 -334 286 -418 14 -26 33 -54 43
-62 14 -13 95 -170 134 -260 63 -148 76 -180 88 -215 7 -22 16 -44 19 -50 4
-5 12 -30 19 -55 7 -25 17 -54 21 -65 17 -47 30 -93 30 -108 0 -10 4 -25 9
-35 5 -9 14 -42 20 -72 7 -30 16 -71 21 -90 5 -19 14 -100 21 -180 6 -80 15
-185 20 -235 6 -49 12 -188 15 -308 l5 -217 -48 1 c-26 1 -114 1 -195 0 l-148
-1 -6 -26 -7 -26 -194 4 -195 3 -15 40 c-55 152 -160 512 -193 665 -20 92 -39
191 -50 255 -7 39 -16 88 -20 110 -12 55 -37 240 -55 405 -32 287 -67 1011
-50 1028 6 7 247 78 271 81 6 0 42 -36 80 -81z m3823 -1368 c1 -53 -26 -104
-41 -77 -5 10 -3 44 7 89 8 40 16 78 16 83 3 22 17 -53 18 -95z m-2029 -367
c0 -3 -6 -11 -14 -19 -13 -12 -15 -12 -13 4 1 15 27 29 27 15z m-182 -203 c-7
-11 -15 -15 -17 -9 -2 6 3 15 10 20 20 12 21 11 7 -11z m998 -127 c5 -17 -2
-53 -18 -102 -14 -42 -31 -98 -38 -126 -20 -82 -49 -133 -70 -120 -13 8 -13
42 0 50 6 3 10 21 10 40 0 19 4 36 9 39 5 3 11 20 14 38 2 18 12 60 20 93 9
33 18 72 21 88 8 37 43 37 52 0z"/>
<path d="M11795 5115 c-19 -8 -24 -14 -13 -14 25 -1 38 -33 54 -128 7 -47 16
-94 19 -104 12 -38 -44 -34 -95 7 -8 7 -51 31 -95 54 -44 23 -95 53 -115 66
-37 25 -60 31 -60 14 0 -5 4 -10 9 -10 4 0 24 -11 43 -23 19 -13 63 -39 99
-58 35 -19 66 -37 67 -41 2 -5 12 -8 23 -8 10 0 19 -3 19 -7 0 -5 10 -13 23
-19 12 -6 41 -21 64 -34 24 -13 45 -22 47 -19 3 2 1 22 -3 44 -23 108 -34 245
-23 270 10 23 9 25 -11 25 -12 -1 -35 -7 -52 -15z"/>
<path d="M11442 4961 l45 -29 13 -115 c7 -63 11 -135 8 -161 -6 -49 -4 -51 38
-36 24 10 25 12 12 28 -24 26 -52 262 -32 262 3 0 18 -8 32 -18 15 -11 42 -25
60 -33 17 -8 32 -17 32 -21 0 -5 9 -8 20 -8 11 0 20 -4 20 -9 0 -4 30 -23 68
-42 37 -18 69 -36 72 -40 9 -11 48 -29 62 -29 16 1 -42 50 -59 50 -6 0 -13 4
-15 8 -1 4 -28 20 -58 35 -58 28 -112 59 -120 67 -5 5 -43 27 -132 74 -26 14
-49 30 -53 36 -3 5 -18 10 -33 10 -24 0 -22 -3 20 -29z"/>
<path d="M11220 4910 c0 -6 4 -18 9 -28 5 -9 38 -75 72 -147 70 -143 82 -160
106 -151 14 6 11 13 -19 44 -19 20 -63 94 -98 165 -34 70 -64 127 -66 127 -2
0 -4 -5 -4 -10z"/>
<path d="M11160 4895 c0 -4 9 -18 19 -32 11 -13 17 -31 14 -39 -3 -8 0 -14 5
-14 6 0 19 -16 28 -36 17 -36 17 -37 -5 -55 -40 -33 -72 -19 -51 22 7 11 9 23
6 26 -5 5 -15 -16 -30 -62 -5 -19 -3 -21 31 -17 21 2 44 9 51 15 25 20 71 -59
72 -120 0 -14 6 -23 15 -23 8 0 15 8 15 18 0 14 -85 197 -135 292 -13 23 -35
39 -35 25z"/>
<path d="M11101 4568 c-8 -18 -19 -36 -25 -40 -6 -4 1 -8 17 -8 25 0 27 3 27
40 0 22 -1 40 -3 40 -1 0 -8 -15 -16 -32z"/>
<path d="M11580 4053 c26 -10 50 -36 50 -55 0 -10 -4 -18 -10 -18 -5 0 -10 -9
-10 -20 0 -11 -4 -20 -10 -20 -5 0 -10 -7 -10 -15 0 -8 -8 -29 -18 -47 -10
-18 -29 -59 -41 -91 -13 -31 -37 -76 -53 -99 -22 -29 -25 -39 -13 -35 9 4 27
7 39 7 19 0 22 4 18 30 -3 18 5 49 19 80 27 56 55 70 141 70 38 0 48 -4 53
-20 3 -11 13 -27 22 -36 9 -8 16 -34 17 -60 1 -38 4 -44 24 -44 27 0 29 27 4
61 -10 13 -31 50 -46 82 -15 31 -33 63 -39 70 -7 6 -23 35 -37 62 -41 84 -59
105 -88 104 -16 0 -21 -3 -12 -6z m96 -128 c25 -54 17 -70 -36 -70 -42 0 -45
2 -42 25 1 14 9 39 17 57 19 39 38 35 61 -12z"/>
<path d="M11305 4026 l-60 -12 -3 -187 -2 -187 27 0 c22 0 25 2 13 10 -20 12
-29 322 -10 345 19 22 116 20 129 -2 13 -24 20 -14 14 20 -6 31 -12 31 -108
13z"/>
<path d="M11105 4011 c-43 -5 -50 -9 -53 -30 -4 -23 -3 -23 13 -8 18 19 121
24 127 7 8 -25 -12 -312 -23 -326 -14 -17 -8 -27 13 -19 23 9 28 50 28 216 0
136 -2 149 -19 159 -11 5 -23 9 -28 8 -4 0 -30 -4 -58 -7z"/>
<path d="M11000 3080 c12 -7 14 -31 12 -120 -2 -61 -7 -122 -12 -136 -6 -14
-10 -35 -10 -46 0 -12 -11 -36 -26 -55 l-25 -33 29 0 c24 0 31 5 37 28 12 48
26 164 31 270 l6 102 -29 0 c-21 0 -24 -3 -13 -10z"/>
<path d="M11096 3078 c-11 -36 -19 -94 -27 -198 -5 -63 -11 -132 -15 -152 l-6
-38 67 0 c72 0 98 10 132 49 39 45 28 126 -19 144 -24 9 -23 40 2 62 29 26 26
76 -6 114 -22 27 -32 31 -75 31 -31 0 -51 -5 -53 -12z m112 -35 c6 -9 12 -34
12 -54 0 -29 -7 -43 -31 -63 -31 -27 -46 -31 -73 -20 -12 5 -16 21 -16 68 0
33 4 66 8 72 18 28 77 26 100 -3z m9 -175 c17 -16 23 -32 23 -62 -1 -57 -24
-84 -81 -92 -43 -6 -48 -4 -64 20 -14 20 -16 38 -11 76 10 77 13 80 64 80 33
0 52 -6 69 -22z"/>
<path d="M11584 3069 c25 -19 36 -59 17 -59 -5 0 -11 -8 -14 -17 -4 -10 -17
-36 -30 -58 -13 -22 -37 -65 -53 -95 -16 -30 -34 -61 -41 -68 -6 -6 -14 -20
-18 -31 -3 -10 -18 -24 -33 -32 -27 -14 -27 -14 22 -17 56 -4 61 -1 47 27 -12
22 0 55 41 114 18 25 24 27 97 27 88 0 91 -2 131 -83 20 -40 22 -52 12 -68
-11 -17 -9 -19 18 -19 16 0 30 4 30 8 0 4 -30 66 -66 137 -37 72 -72 140 -78
152 -6 13 -14 23 -18 23 -5 0 -8 9 -8 20 0 11 -4 20 -10 20 -5 0 -10 9 -10 20
0 16 -7 20 -31 20 l-32 0 27 -21z m65 -94 c2 -11 6 -22 10 -25 14 -11 31 -51
26 -60 -8 -12 -112 -13 -119 -1 -3 4 6 32 20 60 27 54 55 66 63 26z"/>
<path d="M11288 3023 c13 -35 14 -47 5 -50 -7 -3 -13 -12 -13 -21 0 -15 2 -15
17 1 21 21 21 81 0 102 -25 25 -27 18 -9 -32z"/>
<path d="M11300 2867 c0 -9 5 -17 10 -17 6 0 10 -18 10 -39 0 -22 -4 -43 -10
-46 -13 -8 -13 -35 1 -35 6 0 13 9 16 20 3 11 9 20 14 20 21 0 9 67 -16 90
-21 19 -25 21 -25 7z"/>
<path d="M10948 2123 c-9 -10 -18 -34 -21 -53 -7 -43 -34 -155 -57 -235 -7
-22 -14 -54 -17 -71 -5 -29 -3 -32 29 -37 18 -2 34 -4 36 -2 1 1 -4 14 -12 29
-10 20 -11 36 -4 64 5 20 12 52 15 70 3 19 12 36 20 39 8 3 55 -35 123 -101
70 -68 116 -106 130 -106 17 0 -7 28 -100 118 -67 64 -129 119 -137 120 -11 3
-13 12 -9 30 3 15 8 42 12 61 4 19 17 45 30 58 13 13 24 26 24 28 0 13 -49 3
-62 -12z"/>
<path d="M11213 2107 c-6 -12 -28 -31 -49 -43 -63 -33 -89 -49 -94 -55 -3 -4
-14 -8 -24 -10 -11 -2 -21 -9 -23 -15 -2 -6 56 -67 129 -136 101 -96 141 -126
166 -130 39 -6 41 4 5 23 -16 8 -62 46 -103 85 -41 39 -94 88 -118 109 -32 29
-40 41 -31 51 12 15 229 124 247 124 6 0 12 4 12 9 0 4 -24 9 -54 9 -45 0 -55
-3 -63 -21z"/>
<path d="M9593 3175 c0 -33 2 -45 4 -27 2 18 2 45 0 60 -2 15 -4 0 -4 -33z"/>
<path d="M10189 3060 c-4 -174 2 -241 16 -167 4 21 3 106 -2 190 l-9 152 -5
-175z"/>
<path d="M10843 3123 c9 -2 23 -2 30 0 6 3 -1 5 -18 5 -16 0 -22 -2 -12 -5z"/>
<path d="M9582 3083 c-3 -10 -7 -135 -7 -277 0 -199 3 -260 13 -263 9 -4 12
56 12 276 0 155 -2 281 -5 281 -3 0 -9 -8 -13 -17z"/>
<path d="M10653 3083 c9 -2 23 -2 30 0 6 3 -1 5 -18 5 -16 0 -22 -2 -12 -5z"/>
<path d="M9318 3070 c-1 -5 -1 -232 2 -502 l5 -493 5 490 5 490 58 -3 c40 -2
56 1 52 8 -4 6 -23 10 -43 9 -20 -1 -47 1 -59 5 -12 4 -23 2 -25 -4z"/>
<path d="M10291 3015 c-29 -30 -48 -55 -43 -55 11 0 52 35 52 45 0 4 14 20 31
36 17 16 27 29 22 29 -5 0 -33 -25 -62 -55z"/>
<path d="M10416 3054 c-10 -25 -1 -27 19 -4 15 17 16 20 3 20 -9 0 -19 -7 -22
-16z"/>
<path d="M10520 3062 c0 -5 14 -7 30 -4 17 2 30 6 30 8 0 2 -13 4 -30 4 -16 0
-30 -4 -30 -8z"/>
<path d="M9475 3020 c4 -6 11 -8 16 -5 14 9 11 15 -7 15 -8 0 -12 -5 -9 -10z"/>
<path d="M9505 3000 c-3 -5 -1 -10 4 -10 6 0 11 5 11 10 0 6 -2 10 -4 10 -3 0
-8 -4 -11 -10z"/>
<path d="M10351 2984 c-12 -14 -21 -28 -18 -31 6 -5 57 41 57 52 0 11 -16 3
-39 -21z"/>
<path d="M10253 2872 c-23 -28 -30 -48 -13 -37 15 9 52 65 43 65 -4 0 -18 -13
-30 -28z"/>
<path d="M9320 2051 c0 -12 5 -21 10 -21 6 0 10 6 10 14 0 8 -4 18 -10 21 -5
3 -10 -3 -10 -14z"/>
<path d="M9320 1800 c0 -5 5 -10 11 -10 5 0 7 5 4 10 -3 6 -8 10 -11 10 -2 0
-4 -4 -4 -10z"/>
<path d="M8656 2153 c-4 -5 -46 -8 -92 -8 -46 0 -85 -4 -86 -9 -2 -5 31 -8 75
-7 42 1 77 -1 77 -4 0 -4 -18 -24 -40 -46 -22 -22 -40 -42 -40 -45 0 -3 -12
-18 -27 -32 -16 -15 -35 -36 -43 -46 -28 -36 11 -6 50 38 19 22 63 68 98 103
34 35 56 63 49 63 -8 0 -17 -3 -21 -7z"/>
<path d="M8727 2132 c-15 -15 -27 -31 -27 -34 0 -4 -28 -36 -62 -71 -116 -121
-148 -159 -141 -170 4 -7 8 -7 11 3 5 13 35 47 176 197 l70 73 120 -3 c76 -1
121 2 121 8 0 6 -43 11 -105 12 -58 1 -112 4 -120 8 -10 3 -26 -5 -43 -23z"/>
<path d="M2871 6107 c-17 -21 -3 -49 23 -45 15 2 21 10 21 28 0 28 -26 38 -44
17z"/>
<path d="M3104 6105 c-9 -23 3 -45 25 -45 25 0 34 14 26 40 -7 23 -43 27 -51
5z"/>
<path d="M3344 6105 c-9 -23 3 -45 25 -45 23 0 35 28 20 46 -15 18 -38 18 -45
-1z"/>
<path d="M3581 6107 c-17 -21 -3 -49 23 -45 15 2 21 10 21 28 0 28 -26 38 -44
17z"/>
<path d="M3085 4687 c-60 -27 -74 -117 -29 -183 15 -21 38 -52 51 -68 13 -16
23 -38 21 -50 -3 -18 -10 -21 -58 -21 l-55 0 3 -42 4 -42 51 -6 c29 -4 64 -2
79 4 55 21 85 110 57 164 -7 12 -30 43 -51 69 -26 31 -38 55 -36 70 3 20 9 23
51 23 l49 0 -5 38 c-3 21 -8 41 -11 44 -12 13 -93 12 -121 0z"/>
<path d="M5744 4689 c-70 -20 -115 -93 -122 -195 -10 -160 62 -236 208 -219
31 4 61 10 67 13 5 4 13 58 17 120 l7 112 -59 0 c-59 0 -60 0 -66 -31 -10 -50
-7 -59 15 -59 17 0 20 -5 17 -32 -3 -29 -7 -33 -35 -36 -51 -5 -83 33 -83 98
0 109 42 154 140 148 l60 -3 0 41 c0 40 -1 42 -37 48 -50 8 -91 6 -129 -5z"/>
<path d="M330 4645 l0 -45 47 0 46 0 -6 -160 -6 -160 44 0 45 0 0 93 c0 50 3
122 7 160 l6 67 43 0 44 0 0 45 0 45 -135 0 -135 0 0 -45z"/>
<path d="M636 4513 c-4 -98 -9 -190 -12 -205 l-6 -28 121 0 121 0 0 45 0 45
-70 0 -70 0 0 35 0 35 60 0 c60 0 60 0 60 29 0 16 3 36 6 45 5 14 -4 16 -60
16 -58 0 -66 2 -66 19 0 45 9 51 81 51 l69 0 0 45 0 45 -114 0 -114 0 -6 -177z"/>
<path d="M936 4553 c-3 -76 -8 -168 -10 -205 l-3 -68 43 0 44 0 0 98 c0 53 3
127 7 165 l6 67 31 0 c18 0 37 -5 44 -12 29 -29 -1 -88 -45 -88 -20 0 -20 -1
3 -87 12 -49 25 -100 28 -115 6 -25 10 -28 51 -28 25 0 45 3 45 7 0 4 -12 43
-26 88 l-27 81 32 31 c28 28 31 38 31 90 -1 94 -28 113 -158 113 l-90 0 -6
-137z"/>
<path d="M1256 4533 c-4 -87 -8 -179 -10 -205 l-3 -48 48 0 49 0 0 138 c0 75
3 167 7 205 l6 67 -46 0 -45 0 -6 -157z"/>
<path d="M1416 4548 c-4 -79 -9 -171 -13 -205 l-6 -63 35 0 35 0 7 92 c3 50 6
112 7 137 1 67 13 28 34 -111 l19 -118 37 0 c43 0 37 -13 83 175 l24 100 1
-137 1 -138 35 0 35 0 0 68 c0 38 3 130 7 205 l6 137 -60 0 -59 0 -31 -122
c-34 -135 -31 -136 -59 25 l-16 97 -58 0 -57 0 -7 -142z"/>
<path d="M1935 4678 c-2 -7 -36 -97 -75 -199 -38 -102 -70 -189 -70 -193 0 -4
21 -6 47 -4 48 3 48 3 67 56 l19 52 54 0 c34 0 55 -5 58 -12 2 -7 9 -32 15
-55 11 -43 11 -43 55 -43 25 0 45 3 45 8 0 4 -23 96 -51 205 l-52 197 -54 0
c-34 0 -55 -5 -58 -12z m73 -150 l10 -48 -35 0 c-26 0 -34 4 -30 14 3 8 11 33
18 55 15 49 23 44 37 -21z"/>
<path d="M2316 4523 c-4 -93 -9 -185 -11 -205 l-5 -38 50 0 50 0 0 113 c0 63
3 155 6 205 l7 92 -45 0 -46 0 -6 -167z"/>
<path d="M2461 4592 l-49 -98 46 -107 45 -107 54 0 53 0 -50 100 c-50 99 -58
127 -41 146 4 5 27 44 50 87 l42 77 -50 0 -51 0 -49 -98z"/>
<path d="M2765 4678 c-2 -7 -36 -97 -75 -199 -38 -102 -70 -189 -70 -193 0 -4
21 -6 47 -4 48 3 48 3 67 56 l19 52 54 0 c34 0 55 -5 58 -12 2 -7 9 -32 15
-55 11 -43 11 -43 55 -43 25 0 45 3 45 8 0 4 -23 96 -51 205 l-52 197 -54 0
c-34 0 -55 -5 -58 -12z m73 -150 l10 -48 -35 0 c-26 0 -34 4 -30 14 3 8 11 33
18 55 15 49 23 44 37 -21z"/>
<path d="M3286 4533 c-4 -87 -8 -179 -10 -205 l-3 -48 48 0 49 0 0 138 c0 75
3 167 7 205 l6 67 -46 0 -45 0 -6 -157z"/>
<path d="M3449 4623 c-1 -38 -4 -130 -8 -206 l-6 -137 48 0 47 0 0 85 0 85 61
0 61 0 -3 -85 -4 -85 48 0 47 0 0 144 c0 78 3 171 6 205 l7 61 -47 0 -46 0 0
-52 c0 -93 -4 -98 -72 -98 l-59 0 7 75 7 75 -47 0 -46 0 -1 -67z"/>
<path d="M3936 4523 c-4 -93 -9 -185 -11 -205 l-5 -38 50 0 50 0 0 113 c0 63
3 155 6 205 l7 92 -45 0 -46 0 -6 -167z"/>
<path d="M4081 4592 l-49 -98 46 -107 45 -107 54 0 53 0 -50 100 c-50 99 -58
127 -41 146 4 5 27 44 50 87 l42 77 -50 0 -51 0 -49 -98z"/>
<path d="M4385 4678 c-2 -7 -36 -97 -75 -199 -38 -102 -70 -189 -70 -193 0 -4
21 -6 47 -4 48 3 48 3 67 56 l19 52 54 0 c34 0 55 -5 58 -12 2 -7 9 -32 15
-55 11 -43 11 -43 55 -43 25 0 45 3 45 8 0 4 -23 96 -51 205 l-52 197 -54 0
c-34 0 -55 -5 -58 -12z m73 -150 l10 -48 -35 0 c-26 0 -34 4 -30 14 3 8 11 33
18 55 15 49 23 44 37 -21z"/>
<path d="M4646 4553 c-3 -76 -8 -168 -10 -205 l-3 -68 43 0 44 0 0 98 c0 53 3
127 7 165 l6 67 31 0 c18 0 37 -5 44 -12 29 -29 -1 -88 -45 -88 -20 0 -20 -1
3 -87 12 -49 25 -100 28 -115 6 -25 10 -28 51 -28 25 0 45 3 45 7 0 4 -12 43
-26 88 l-27 81 32 31 c28 28 31 38 31 90 -1 94 -28 113 -158 113 l-90 0 -6
-137z"/>
<path d="M4966 4513 c-4 -98 -9 -190 -12 -205 l-6 -28 121 0 121 0 0 45 0 45
-70 0 -70 0 0 35 0 35 60 0 c60 0 60 0 60 29 0 16 3 36 6 45 5 14 -4 16 -60
16 -58 0 -66 2 -66 19 0 45 9 51 81 51 l69 0 0 45 0 45 -114 0 -114 0 -6 -177z"/>
<path d="M5266 4523 c-4 -93 -8 -185 -10 -205 l-4 -38 39 0 c47 0 48 3 52 155
l2 109 51 -129 52 -130 56 -3 56 -3 0 108 c0 59 3 152 7 206 l6 97 -41 0 -42
0 -1 -112 c0 -62 -3 -121 -7 -130 -5 -11 -23 26 -56 113 l-49 129 -53 0 -52 0
-6 -167z"/>
<path d="M12783 4222 c24 -26 21 -44 -14 -115 -17 -34 -35 -70 -40 -79 -5 -10
-9 -25 -9 -33 0 -8 -4 -15 -10 -15 -5 0 -10 -6 -10 -14 0 -7 -18 -48 -40 -91
-22 -43 -39 -80 -37 -82 2 -2 18 0 36 3 26 5 29 9 19 21 -12 15 -5 47 28 119
19 43 31 50 91 58 65 8 73 -3 73 -103 0 -67 12 -93 27 -55 6 16 1 43 -37 209
-12 50 -24 101 -27 115 -11 51 -28 80 -47 80 -18 0 -18 -1 -3 -18z m45 -117
c7 -14 12 -39 12 -54 0 -26 -4 -29 -37 -34 -46 -5 -62 6 -45 33 6 11 12 25 12
32 0 13 29 48 40 48 4 0 12 -11 18 -25z"/>
<path d="M12858 4223 c5 -10 14 -45 21 -78 7 -33 15 -69 18 -80 8 -30 23 -124
29 -177 4 -27 12 -49 20 -52 16 -6 20 19 4 29 -5 3 -10 26 -10 50 0 24 -4 54
-9 67 -5 13 -14 55 -21 93 -19 118 -33 165 -47 165 -10 0 -11 -5 -5 -17z"/>
<path d="M12515 4210 c-3 -5 -15 -10 -27 -10 -20 0 -20 -2 -13 -207 4 -119 12
-211 17 -214 6 -4 19 -4 29 -2 16 5 16 7 4 20 -21 20 -23 39 -28 208 -4 136
-3 153 15 183 11 17 17 32 14 32 -2 0 -8 -4 -11 -10z"/>
<path d="M525 3997 c-60 -27 -74 -117 -29 -183 15 -21 38 -52 51 -68 13 -16
23 -38 21 -50 -3 -18 -10 -21 -58 -21 l-55 0 3 -42 4 -42 51 -6 c29 -4 64 -2
79 4 55 21 85 110 57 164 -7 12 -30 43 -51 69 -26 31 -38 55 -36 70 3 20 9 23
51 23 l49 0 -5 38 c-3 21 -8 41 -11 44 -12 13 -93 12 -121 0z"/>
<path d="M2664 3999 c-70 -20 -115 -93 -122 -195 -10 -160 62 -236 208 -219
31 4 61 10 67 13 5 4 13 58 17 120 l7 112 -59 0 c-59 0 -60 0 -66 -31 -10 -50
-7 -59 15 -59 17 0 20 -5 17 -32 -3 -29 -7 -33 -35 -36 -51 -5 -83 33 -83 98
0 109 42 154 140 148 l60 -3 0 41 c0 40 -1 42 -37 48 -50 8 -91 6 -129 -5z"/>
<path d="M727 3978 c-4 -13 -7 -90 -8 -171 -2 -134 0 -150 18 -175 46 -62 170
-67 229 -8 35 35 38 56 47 279 l4 97 -47 0 -47 0 -5 -139 c-5 -153 -17 -191
-62 -191 -43 0 -47 18 -44 179 l3 151 -41 0 c-35 0 -43 -4 -47 -22z"/>
<path d="M1076 3858 c-4 -79 -9 -171 -13 -205 l-6 -63 35 0 35 0 7 92 c3 50 6
112 7 137 1 67 13 28 34 -111 l19 -118 37 0 c43 0 37 -13 83 175 l24 100 1
-137 1 -138 35 0 35 0 0 68 c0 38 3 130 7 205 l6 137 -60 0 -59 0 -31 -122
c-34 -135 -31 -136 -59 25 l-16 97 -58 0 -57 0 -7 -142z"/>
<path d="M1499 3958 c-1 -24 -4 -116 -8 -206 l-6 -162 81 0 c45 0 96 3 114 6
66 14 95 124 47 180 -23 26 -23 28 -6 45 37 37 36 122 -1 159 -17 17 -34 20
-120 20 l-100 0 -1 -42z m159 -66 c5 -32 -15 -52 -49 -52 -27 0 -29 3 -29 41
l0 40 38 -3 c30 -2 38 -7 40 -26z m-3 -177 c0 -40 0 -40 -42 -43 l-43 -3 0 46
0 46 43 -3 c42 -3 42 -3 42 -43z"/>
<path d="M1915 3988 c-2 -7 -36 -97 -75 -199 -38 -102 -70 -189 -70 -193 0 -4
21 -6 47 -4 48 3 48 3 67 56 l19 52 54 0 c34 0 55 -5 58 -12 2 -7 9 -32 15
-55 11 -43 11 -43 55 -43 25 0 45 3 45 8 0 4 -23 96 -51 205 l-52 197 -54 0
c-34 0 -55 -5 -58 -12z m73 -150 l10 -48 -35 0 c-26 0 -34 4 -30 14 3 8 11 33
18 55 15 49 23 44 37 -21z"/>
<path d="M2186 3833 c-4 -93 -8 -185 -10 -205 l-4 -38 39 0 c47 0 48 3 52 155
l2 109 51 -129 52 -130 56 -3 56 -3 0 108 c0 59 3 152 7 206 l6 97 -41 0 -42
0 -1 -112 c0 -62 -3 -121 -7 -130 -5 -11 -23 26 -56 113 l-49 129 -53 0 -52 0
-6 -167z"/>
<path d="M3005 3988 c-2 -7 -36 -97 -75 -199 -38 -102 -70 -189 -70 -193 0 -4
21 -6 47 -4 48 3 48 3 67 56 l19 52 54 0 c34 0 55 -5 58 -12 2 -7 9 -32 15
-55 11 -43 11 -43 55 -43 25 0 45 3 45 8 0 4 -23 96 -51 205 l-52 197 -54 0
c-34 0 -55 -5 -58 -12z m73 -150 l10 -48 -35 0 c-26 0 -34 4 -30 14 3 8 11 33
18 55 15 49 23 44 37 -21z"/>
<path d="M3276 3833 c-4 -93 -8 -185 -10 -205 l-4 -38 39 0 c47 0 48 3 52 155
l2 109 51 -129 52 -130 56 -3 56 -3 0 108 c0 59 3 152 7 206 l6 97 -41 0 -42
0 -1 -112 c0 -62 -3 -121 -7 -130 -5 -11 -23 26 -56 113 l-49 129 -53 0 -52 0
-6 -167z"/>
<path d="M3620 3955 l0 -45 47 0 46 0 -6 -160 -6 -160 44 0 45 0 0 93 c0 50 3
122 7 160 l6 67 43 0 44 0 0 45 0 45 -135 0 -135 0 0 -45z"/>
<path d="M4025 3988 c-2 -7 -36 -97 -75 -199 -38 -102 -70 -189 -70 -193 0 -4
21 -6 47 -4 48 3 48 3 67 56 l19 52 54 0 c34 0 55 -5 58 -12 2 -7 9 -32 15
-55 11 -43 11 -43 55 -43 25 0 45 3 45 8 0 4 -23 96 -51 205 l-52 197 -54 0
c-34 0 -55 -5 -58 -12z m73 -150 l10 -48 -35 0 c-26 0 -34 4 -30 14 3 8 11 33
18 55 15 49 23 44 37 -21z"/>
<path d="M4515 3988 c-2 -7 -36 -97 -75 -199 -38 -102 -70 -189 -70 -193 0 -4
21 -6 47 -4 48 3 48 3 67 56 l19 52 54 0 c34 0 55 -5 58 -12 2 -7 9 -32 15
-55 11 -43 11 -43 55 -43 25 0 45 3 45 8 0 4 -23 96 -51 205 l-52 197 -54 0
c-34 0 -55 -5 -58 -12z m73 -150 l10 -48 -35 0 c-26 0 -34 4 -30 14 3 8 11 33
18 55 15 49 23 44 37 -21z"/>
<path d="M4786 3833 c-4 -93 -9 -185 -11 -205 l-5 -38 50 0 50 0 0 113 c0 63
3 155 6 205 l7 92 -45 0 -46 0 -6 -167z"/>
<path d="M4931 3902 l-49 -98 46 -107 45 -107 54 0 53 0 -50 100 c-50 99 -58
127 -41 146 4 5 27 44 50 87 l42 77 -50 0 -51 0 -49 -98z"/>
<path d="M5235 3988 c-2 -7 -36 -97 -75 -199 -38 -102 -70 -189 -70 -193 0 -4
21 -6 47 -4 48 3 48 3 67 56 l19 52 54 0 c34 0 55 -5 58 -12 2 -7 9 -32 15
-55 11 -43 11 -43 55 -43 25 0 45 3 45 8 0 4 -23 96 -51 205 l-52 197 -54 0
c-34 0 -55 -5 -58 -12z m73 -150 l10 -48 -35 0 c-26 0 -34 4 -30 14 3 8 11 33
18 55 15 49 23 44 37 -21z"/>
<path d="M5496 3833 c-4 -93 -8 -185 -10 -205 l-4 -38 39 0 c47 0 48 3 52 155
l2 109 51 -129 52 -130 56 -3 56 -3 0 108 c0 59 3 152 7 206 l6 97 -41 0 -42
0 -1 -112 c0 -62 -3 -121 -7 -130 -5 -11 -23 26 -56 113 l-49 129 -53 0 -52 0
-6 -167z"/>
<path d="M1055 3307 c-60 -27 -74 -117 -29 -183 15 -21 38 -52 51 -68 13 -16
23 -38 21 -50 -3 -18 -10 -21 -58 -21 l-55 0 3 -42 4 -42 51 -6 c29 -4 64 -2
79 4 55 21 85 110 57 164 -7 12 -30 43 -51 69 -26 31 -38 55 -36 70 3 20 9 23
51 23 l49 0 -5 38 c-3 21 -8 41 -11 44 -12 13 -93 12 -121 0z"/>
<path d="M1674 3309 c-70 -20 -115 -93 -122 -195 -10 -160 62 -236 208 -219
31 4 61 10 67 13 5 4 13 58 17 120 l7 112 -59 0 c-59 0 -60 0 -66 -31 -10 -50
-7 -59 15 -59 17 0 20 -5 17 -32 -3 -29 -7 -33 -35 -36 -51 -5 -83 33 -83 98
0 109 42 154 140 148 l60 -3 0 41 c0 40 -1 42 -37 48 -50 8 -91 6 -129 -5z"/>
<path d="M4235 3306 c-76 -28 -115 -101 -115 -217 0 -110 50 -179 141 -194
117 -20 202 70 203 215 1 120 -51 194 -144 205 -27 3 -61 -1 -85 -9z m102 -91
c49 -35 53 -150 6 -205 -48 -57 -119 -25 -130 58 -16 116 53 197 124 147z"/>
<path d="M4575 3307 c-60 -27 -74 -117 -29 -183 15 -21 38 -52 51 -68 13 -16
23 -38 21 -50 -3 -18 -10 -21 -58 -21 l-55 0 3 -42 4 -42 51 -6 c29 -4 64 -2
79 4 55 21 85 110 57 164 -7 12 -30 43 -51 69 -26 31 -38 55 -36 70 3 20 9 23
51 23 l49 0 -5 38 c-3 21 -8 41 -11 44 -12 13 -93 12 -121 0z"/>
<path d="M5125 3307 c-60 -27 -74 -117 -29 -183 15 -21 38 -52 51 -68 13 -16
23 -38 21 -50 -3 -18 -10 -21 -58 -21 l-55 0 3 -42 4 -42 51 -6 c29 -4 64 -2
79 4 55 21 85 110 57 164 -7 12 -30 43 -51 69 -26 31 -38 55 -36 70 3 20 9 23
51 23 l49 0 -5 38 c-3 21 -8 41 -11 44 -12 13 -93 12 -121 0z"/>
<path d="M1266 3133 c-4 -98 -9 -190 -12 -205 l-6 -28 121 0 121 0 0 45 0 45
-70 0 -70 0 0 35 0 35 60 0 c60 0 60 0 60 29 0 16 3 36 6 45 5 14 -4 16 -60
16 -58 0 -66 2 -66 19 0 45 9 51 81 51 l69 0 0 45 0 45 -114 0 -114 0 -6 -177z"/>
<path d="M1916 3133 c-4 -98 -9 -190 -12 -205 l-6 -28 121 0 121 0 0 45 0 45
-70 0 -70 0 0 35 0 35 60 0 c60 0 60 0 60 29 0 16 3 36 6 45 5 14 -4 16 -60
16 -58 0 -66 2 -66 19 0 45 9 51 81 51 l69 0 0 45 0 45 -114 0 -114 0 -6 -177z"/>
<path d="M2216 3173 c-3 -76 -8 -168 -10 -205 l-3 -68 43 0 44 0 0 98 c0 53 3
127 7 165 l6 67 31 0 c18 0 37 -5 44 -12 29 -29 -1 -88 -45 -88 -20 0 -20 -1
3 -87 12 -49 25 -100 28 -115 6 -25 10 -28 51 -28 25 0 45 3 45 7 0 4 -12 43
-26 88 l-27 81 32 31 c28 28 31 38 31 90 -1 94 -28 113 -158 113 l-90 0 -6
-137z"/>
<path d="M2635 3298 c-2 -7 -36 -97 -75 -199 -38 -102 -70 -189 -70 -193 0 -4
21 -6 47 -4 48 3 48 3 67 56 l19 52 54 0 c34 0 55 -5 58 -12 2 -7 9 -32 15
-55 11 -43 11 -43 55 -43 25 0 45 3 45 8 0 4 -23 96 -51 205 l-52 197 -54 0
c-34 0 -55 -5 -58 -12z m73 -150 l10 -48 -35 0 c-26 0 -34 4 -30 14 3 8 11 33
18 55 15 49 23 44 37 -21z"/>
<path d="M3016 3153 c-3 -87 -8 -180 -10 -207 l-3 -48 103 4 c93 3 106 6 130
28 43 40 66 104 67 184 0 84 -14 134 -49 167 -23 22 -36 24 -129 27 l-103 4
-6 -159z m164 57 c23 -13 43 -79 34 -117 -17 -81 -38 -103 -95 -103 l-32 0 7
46 c3 26 6 78 6 115 l0 69 31 0 c17 0 39 -5 49 -10z"/>
<path d="M3366 3153 c-4 -87 -8 -179 -10 -205 l-3 -48 48 0 49 0 0 138 c0 75
3 167 7 205 l6 67 -46 0 -45 0 -6 -157z"/>
<path d="M3529 3268 c-1 -24 -4 -116 -8 -206 l-6 -162 43 0 42 0 0 165 0 165
29 0 c40 0 56 -22 45 -63 -7 -22 -17 -33 -33 -35 -21 -3 -23 -8 -18 -39 8 -46
11 -48 54 -37 53 13 83 61 83 131 0 58 -19 107 -45 117 -9 3 -55 6 -101 6
l-84 0 -1 -42z"/>
<path d="M3816 3173 c-3 -76 -8 -168 -10 -205 l-3 -68 43 0 44 0 0 98 c0 53 3
127 7 165 l6 67 31 0 c18 0 37 -5 44 -12 29 -29 -1 -88 -45 -88 -20 0 -20 -1
3 -87 12 -49 25 -100 28 -115 6 -25 10 -28 51 -28 25 0 45 3 45 7 0 4 -12 43
-26 88 l-27 81 32 31 c28 28 31 38 31 90 -1 94 -28 113 -158 113 l-90 0 -6
-137z"/>
<path d="M4786 3133 c-4 -98 -9 -190 -12 -205 l-6 -28 121 0 121 0 0 45 0 45
-70 0 -70 0 0 35 0 35 60 0 c60 0 60 0 60 29 0 16 3 36 6 45 5 14 -4 16 -60
16 -58 0 -66 2 -66 19 0 45 9 51 81 51 l69 0 0 45 0 45 -114 0 -114 0 -6 -177z"/>
<path d="M12824 3166 c10 -16 14 -35 10 -55 -5 -24 -3 -31 10 -31 15 0 21 12
17 34 -1 4 -2 23 -3 42 -1 29 -5 34 -26 34 -23 0 -24 -1 -8 -24z"/>
<path d="M12526 3155 c-18 -14 -19 -25 -13 -207 4 -106 9 -203 13 -215 6 -21
12 -23 81 -23 80 0 103 11 103 51 l0 22 -18 -21 c-15 -17 -32 -22 -76 -23 -31
-1 -59 1 -62 4 -24 24 -35 392 -12 399 6 2 9 9 7 15 -3 8 -10 7 -23 -2z"/>
<path d="M12432 3133 c20 -24 47 -378 29 -396 -16 -16 -14 -27 5 -27 15 0 16
17 11 173 -9 232 -14 267 -40 267 -18 0 -19 -2 -5 -17z"/>
<path d="M12110 3115 c-10 -12 -11 -41 -5 -123 4 -59 11 -150 14 -202 l6 -95
95 2 c129 3 140 7 140 43 l0 29 -27 -25 c-24 -23 -34 -25 -102 -22 l-75 3 -12
40 c-7 22 -13 102 -13 181 -1 128 1 142 19 162 l21 22 -24 0 c-14 0 -30 -7
-37 -15z"/>
<path d="M12872 3050 c0 -14 2 -19 5 -12 2 6 2 18 0 25 -3 6 -5 1 -5 -13z"/>
<path d="M12865 2964 c-11 -8 -30 -12 -42 -9 -20 5 -23 1 -23 -22 0 -20 3 -24
9 -14 5 7 24 14 42 15 27 1 35 6 37 24 4 26 3 26 -23 6z"/>
<path d="M12914 2813 c1 -63 11 -78 34 -50 9 10 7 19 -4 36 -9 12 -20 34 -24
49 -5 19 -7 9 -6 -35z"/>
<path d="M12766 2788 c-16 -51 -14 -58 11 -58 19 0 24 4 19 16 -3 9 -6 24 -6
35 0 21 -18 26 -24 7z"/>
<path d="M4269 623 c-13 -16 -12 -17 4 -4 9 7 17 15 17 17 0 8 -8 3 -21 -13z"/>
<path d="M4190 553 l-55 -58 58 55 c31 30 57 56 57 57 0 8 -10 -1 -60 -54z"/>
<path d="M4379 589 l-24 -20 28 17 c15 9 27 18 27 20 0 8 -8 4 -31 -17z"/>
<path d="M4269 583 c-13 -16 -12 -17 4 -4 9 7 17 15 17 17 0 8 -8 3 -21 -13z"/>
<path d="M1412 543 l-2 -52 -52 -4 -53 -3 53 -2 52 -2 2 -52 2 -53 3 52 4 52
52 4 52 3 -52 2 -52 2 -4 53 -3 52 -2 -52z"/>
<path d="M4504 564 c-18 -14 -18 -15 4 -4 12 6 22 13 22 15 0 8 -5 6 -26 -11z"/>
<path d="M4245 518 l-50 -53 53 50 c28 27 52 51 52 52 0 8 -9 -1 -55 -49z"/>
<path d="M4319 543 l-24 -28 28 24 c15 14 27 26 27 28 0 8 -8 1 -31 -24z"/>
<path d="M4419 543 c-13 -16 -12 -17 4 -4 9 7 17 15 17 17 0 8 -8 3 -21 -13z"/>
<path d="M4309 493 l-34 -38 38 34 c20 19 37 36 37 38 0 8 -8 0 -41 -34z"/>
<path d="M4369 503 l-24 -28 28 24 c15 14 27 26 27 28 0 8 -8 1 -31 -24z"/>
<path d="M4429 513 c-13 -16 -12 -17 4 -4 16 13 21 21 13 21 -2 0 -10 -8 -17
-17z"/>
<path d="M4174 488 l-19 -23 23 19 c12 11 22 21 22 23 0 8 -8 2 -26 -19z"/>
<path d="M4355 448 l-50 -53 53 50 c28 27 52 51 52 52 0 8 -9 -1 -55 -49z"/>
<path d="M4119 473 c-13 -16 -12 -17 4 -4 16 13 21 21 13 21 -2 0 -10 -8 -17
-17z"/>
<path d="M4424 468 l-19 -23 23 19 c12 11 22 21 22 23 0 8 -8 2 -26 -19z"/>
<path d="M4479 473 c-13 -16 -12 -17 4 -4 9 7 17 15 17 17 0 8 -8 3 -21 -13z"/>
<path d="M3525 446 c-16 -12 -18 -18 -9 -33 14 -23 34 -23 48 -1 8 14 7 21 -5
33 -13 13 -17 13 -34 1z"/>
<path d="M3762 448 c-17 -17 -15 -48 3 -54 18 -7 45 12 45 32 0 20 -34 36 -48
22z"/>
<path d="M3989 444 c-15 -18 -2 -47 24 -52 25 -5 40 33 21 52 -19 20 -28 20
-45 0z"/>
<path d="M4179 443 c-13 -16 -12 -17 4 -4 16 13 21 21 13 21 -2 0 -10 -8 -17
-17z"/>
<path d="M4221 442 c-20 -37 30 -71 57 -39 9 10 7 19 -4 35 -18 27 -40 28 -53
4z"/>
<path d="M4410 415 c-24 -25 -42 -45 -39 -45 3 0 25 20 49 45 24 25 42 45 39
45 -3 0 -25 -20 -49 -45z"/>
<path d="M4479 433 l-24 -28 28 24 c15 14 27 26 27 28 0 8 -8 1 -31 -24z"/>
<path d="M4539 443 c-13 -16 -12 -17 4 -4 9 7 17 15 17 17 0 8 -8 3 -21 -13z"/>
<path d="M4460 375 c-24 -25 -42 -45 -39 -45 3 0 25 20 49 45 24 25 42 45 39
45 -3 0 -25 -20 -49 -45z"/>
<path d="M4529 393 l-24 -28 28 24 c15 14 27 26 27 28 0 8 -8 1 -31 -24z"/>
<path d="M4589 403 c-13 -16 -12 -17 4 -4 16 13 21 21 13 21 -2 0 -10 -8 -17
-17z"/>
<path d="M4339 383 l-24 -28 28 24 c15 14 27 26 27 28 0 8 -8 1 -31 -24z"/>
<path d="M4734 394 c-18 -14 -18 -15 4 -4 12 6 22 13 22 15 0 8 -5 6 -26 -11z"/>
<path d="M4289 373 c-13 -16 -12 -17 4 -4 16 13 21 21 13 21 -2 0 -10 -8 -17
-17z"/>
<path d="M4589 363 l-24 -28 28 24 c15 14 27 26 27 28 0 8 -8 1 -31 -24z"/>
<path d="M4510 335 c-24 -25 -42 -45 -39 -45 3 0 25 20 49 45 24 25 42 45 39
45 -3 0 -25 -20 -49 -45z"/>
<path d="M4639 363 c-13 -16 -12 -17 4 -4 16 13 21 21 13 21 -2 0 -10 -8 -17
-17z"/>
<path d="M4394 348 l-19 -23 23 19 c12 11 22 21 22 23 0 8 -8 2 -26 -19z"/>
<path d="M4339 333 c-13 -16 -12 -17 4 -4 16 13 21 21 13 21 -2 0 -10 -8 -17
-17z"/>
<path d="M4570 305 c-24 -25 -42 -45 -39 -45 3 0 25 20 49 45 24 25 42 45 39
45 -3 0 -25 -20 -49 -45z"/>
<path d="M4644 328 l-19 -23 23 19 c12 11 22 21 22 23 0 8 -8 2 -26 -19z"/>
<path d="M4699 333 c-13 -16 -12 -17 4 -4 16 13 21 21 13 21 -2 0 -10 -8 -17
-17z"/>
<path d="M4449 313 l-24 -28 28 24 c15 14 27 26 27 28 0 8 -8 1 -31 -24z"/>
<path d="M4399 303 c-13 -16 -12 -17 4 -4 9 7 17 15 17 17 0 8 -8 3 -21 -13z"/>
<path d="M4625 268 l-50 -53 53 50 c28 27 52 51 52 52 0 8 -9 -1 -55 -49z"/>
<path d="M4704 298 l-19 -23 23 19 c12 11 22 21 22 23 0 8 -8 2 -26 -19z"/>
<path d="M4759 303 c-13 -16 -12 -17 4 -4 16 13 21 21 13 21 -2 0 -10 -8 -17
-17z"/>
<path d="M4195 289 c-4 -6 -5 -12 -2 -15 2 -3 7 2 10 11 7 17 1 20 -8 4z"/>
<path d="M4499 273 l-24 -28 28 24 c15 14 27 26 27 28 0 8 -8 1 -31 -24z"/>
<path d="M4764 268 l-19 -23 23 19 c12 11 22 21 22 23 0 8 -8 2 -26 -19z"/>
<path d="M4409 263 c-13 -16 -12 -17 4 -4 16 13 21 21 13 21 -2 0 -10 -8 -17
-17z"/>
<path d="M4449 263 c-13 -16 -12 -17 4 -4 9 7 17 15 17 17 0 8 -8 3 -21 -13z"/>
<path d="M4675 228 l-50 -53 53 50 c28 27 52 51 52 52 0 8 -9 -1 -55 -49z"/>
<path d="M4752 213 l-69 -68 66 59 c36 33 70 63 76 68 5 4 6 8 2 8 -4 0 -38
-30 -75 -67z"/>
<path d="M4549 233 l-24 -28 28 24 c15 14 27 26 27 28 0 8 -8 1 -31 -24z"/>
<path d="M4819 233 c-13 -16 -12 -17 4 -4 9 7 17 15 17 17 0 8 -8 3 -21 -13z"/>
<path d="M4869 233 c-13 -16 -12 -17 4 -4 16 13 21 21 13 21 -2 0 -10 -8 -17
-17z"/>
<path d="M4499 223 c-13 -16 -12 -17 4 -4 16 13 21 21 13 21 -2 0 -10 -8 -17
-17z"/>
<path d="M4699 213 l-24 -28 28 24 c15 14 27 26 27 28 0 8 -8 1 -31 -24z"/>
<path d="M4609 203 l-24 -28 28 24 c15 14 27 26 27 28 0 8 -8 1 -31 -24z"/>
<path d="M4939 209 l-24 -20 28 17 c15 9 27 18 27 20 0 8 -8 4 -31 -17z"/>
<path d="M4330 199 c-7 -11 -10 -23 -7 -25 2 -2 9 7 15 21 14 30 7 33 -8 4z"/>
<path d="M4785 158 l-60 -63 63 60 c58 55 67 65 59 65 -1 0 -29 -28 -62 -62z"/>
<path d="M4874 198 l-19 -23 23 19 c12 11 22 21 22 23 0 8 -8 2 -26 -19z"/>
<path d="M4559 193 c-13 -16 -12 -17 4 -4 16 13 21 21 13 21 -2 0 -10 -8 -17
-17z"/>
<path d="M4754 178 l-29 -33 33 29 c17 17 32 31 32 33 0 8 -8 1 -36 -29z"/>
<path d="M4840 123 l-65 -68 68 65 c37 35 67 66 67 67 0 8 -10 -2 -70 -64z"/>
<path d="M4939 173 c-13 -16 -12 -17 4 -4 16 13 21 21 13 21 -2 0 -10 -8 -17
-17z"/>
<path d="M4654 158 l-19 -23 23 19 c12 11 22 21 22 23 0 8 -8 2 -26 -19z"/>
<path d="M4809 143 l-34 -38 38 34 c20 19 37 36 37 38 0 8 -8 0 -41 -34z"/>
<path d="M4345 159 c-4 -6 -5 -12 -2 -15 2 -3 7 2 10 11 7 17 1 20 -8 4z"/>
<path d="M4450 150 c-6 -11 -8 -20 -6 -20 3 0 10 9 16 20 6 11 8 20 6 20 -3 0
-10 -9 -16 -20z"/>
<path d="M4609 153 c-13 -16 -12 -17 4 -4 16 13 21 21 13 21 -2 0 -10 -8 -17
-17z"/>
<path d="M4865 108 l-40 -43 43 40 c23 21 42 40 42 42 0 8 -9 0 -45 -39z"/>
<path d="M4929 123 l-24 -28 28 24 c15 14 27 26 27 28 0 8 -8 1 -31 -24z"/>
<path d="M4986 135 c-11 -8 -15 -15 -9 -15 6 0 16 7 23 15 16 19 11 19 -14 0z"/>
<path d="M4365 129 c-4 -6 -5 -12 -2 -15 2 -3 7 2 10 11 7 17 1 20 -8 4z"/>
<path d="M4619 113 c-13 -16 -12 -17 4 -4 16 13 21 21 13 21 -2 0 -10 -8 -17
-17z"/>
<path d="M4659 113 c-13 -16 -12 -17 4 -4 16 13 21 21 13 21 -2 0 -10 -8 -17
-17z"/>
<path d="M4699 113 c-13 -16 -12 -17 4 -4 16 13 21 21 13 21 -2 0 -10 -8 -17
-17z"/>
<path d="M4910 65 c-24 -25 -42 -45 -39 -45 3 0 25 20 49 45 24 25 42 45 39
45 -3 0 -25 -20 -49 -45z"/>
<path d="M4590 70 c-6 -11 -8 -20 -6 -20 3 0 10 9 16 20 6 11 8 20 6 20 -3 0
-10 -9 -16 -20z"/>
<path d="M4669 73 c-13 -16 -12 -17 4 -4 16 13 21 21 13 21 -2 0 -10 -8 -17
-17z"/>
<path d="M4709 73 c-13 -16 -12 -17 4 -4 16 13 21 21 13 21 -2 0 -10 -8 -17
-17z"/>
<path d="M4749 73 c-13 -16 -12 -17 4 -4 16 13 21 21 13 21 -2 0 -10 -8 -17
-17z"/>
<path d="M4510 60 c-6 -11 -8 -20 -6 -20 3 0 10 9 16 20 6 11 8 20 6 20 -3 0
-10 -9 -16 -20z"/>
<path d="M4849 43 l-24 -28 28 24 c25 23 32 31 24 31 -2 0 -14 -12 -28 -27z"/>
<path d="M4391 33 c-10 -26 -10 -27 4 -9 8 11 15 23 15 28 0 15 -7 8 -19 -19z"/>
<path d="M4421 23 c-10 -26 -10 -27 4 -9 8 11 15 23 15 28 0 15 -7 8 -19 -19z"/>
<path d="M4530 29 c-7 -11 -10 -23 -7 -25 2 -2 9 7 15 21 14 30 7 33 -8 4z"/>
<path d="M4723 38 c-15 -20 -25 -38 -20 -38 3 0 12 11 21 25 17 26 16 35 -1
13z"/>
<path d="M4759 33 c-13 -16 -12 -17 4 -4 16 13 21 21 13 21 -2 0 -10 -8 -17
-17z"/>
<path d="M4799 33 c-13 -16 -12 -17 4 -4 16 13 21 21 13 21 -2 0 -10 -8 -17
-17z"/>
<path d="M4456 25 c-9 -26 -7 -32 5 -12 6 10 9 21 6 23 -2 3 -7 -2 -11 -11z"/>
<path d="M4560 20 c-6 -11 -8 -20 -6 -20 3 0 10 9 16 20 6 11 8 20 6 20 -3 0
-10 -9 -16 -20z"/>
<path d="M340 15 c0 -10 10 -15 33 -15 l32 1 -25 14 c-32 18 -40 18 -40 0z"/>
</g>
</svg>
